# xmcd CD database file
#
# Track frame offsets:
#	150
#	13155
#	24382
#	40607
#	56962
#	67762
#	79595
#	92195
#	104437
#	112960
#	124975
#	137030
#	145597
#	158070
#	168087
#	186222
#	203210
#	212432
#	220107
#	232182
#
# Disc length: 3267 seconds
#
# Revision: 4
# Processed by: cddbd v1.4PL0 Copyright (c) Steve Scherf et al.
# Submitted via: CDex 1.50Beta7
#
DISCID=110cc114
DTITLE=Johnny Cash - San Quentin To Folsom (1995) - Famous Music Makers (2002)
DYEAR=1995
DGENRE=Country
TTITLE0=Ring Of Fire
TTITLE1=Big River
TTITLE2=A Boy Named Sue
TTITLE3=The City Of New Orleans
TTITLE4=Rock Island Line
TTITLE5=Highwayman
TTITLE6=Long Black Veil
TTITLE7=Folsom Prison Blues
TTITLE8=I Got Stripes
TTITLE9=I Still Miss Someone
TTITLE10=Sixteen Tons
TTITLE11=Get Rhythm
TTITLE12=Jackson
TTITLE13=If I Were A Carpenter
TTITLE14=Orange Blossom Special
TTITLE15=Sunday Morning Coming Down
TTITLE16=Why Me
TTITLE17=Casey Jone
TTITLE18=Peace In The Valley
TTITLE19=I Walk The Line
EXTD=(c)1995,Also released on Disky Records NL as "Famous Country Music Makers" in 2002upc 0724357931625, Cataloge: SI 793162 YEAR: 1995
EXTT0=
EXTT1=
EXTT2=
EXTT3=
EXTT4=
EXTT5=
EXTT6=
EXTT7=
EXTT8=
EXTT9=
EXTT10=
EXTT11=
EXTT12=
EXTT13=
EXTT14=
EXTT15=
EXTT16=
EXTT17=
EXTT18=
EXTT19=
PLAYORDER=
